<?xml version="1.0" encoding="utf-8"?>
<!-- Svg Vector Icons : http://www.onlinewebfonts.com/icon -->
<!DOCTYPE svg PUBLIC "-//W3C//DTD SVG 1.1//EN" "http://www.w3.org/Graphics/SVG/1.1/DTD/svg11.dtd">
<svg version="1.1" xmlns="http://www.w3.org/2000/svg" xmlns:xlink="http://www.w3.org/1999/xlink" x="50px" y="50px" viewBox="0 0 1000 1000" enable-background="new 0 0 1000 1000" xml:space="preserve">
<metadata> Svg Vector Icons : http://www.onlinewebfonts.com/icon </metadata>
<g><g transform="translate(0.000000,512.000000) scale(0.100000,-0.100000)"><path d="M4559.8,5008.2c-1183.2-117-2220.7-609.8-3043.3-1440.2C757,2799,306.4,1891.9,135.7,789.3C83.9,449.9,89.7-244.3,145.3-601C260.3-1327.8,525-2016.3,912.3-2595.4c778.6-1162.1,1973.3-1921.5,3369.4-2142.1c218.6-34.5,350.9-42.2,709.5-42.2c262.7-1.9,510.1,7.7,613.7,23c583,84.4,1060.5,228.2,1553.3,471.8c535,264.6,918.6,540.8,1327,953.1c404.6,408.5,657.8,767.1,918.6,1292.5c243.6,492.8,389.3,972.3,471.8,1553.3c32.6,226.3,32.6,981.9,0,1208.1c-163,1137.2-629,2086.4-1405.6,2865c-759.4,759.4-1689.5,1225.4-2778.7,1392.2C5457.2,5015.8,4797.5,5033.1,4559.8,5008.2z M5125.5,3165.3c65.2-17.2,232.1-176.4,1146.8-1087.3c709.5-709.5,1081.6-1095,1106.5-1146.8c67.1-134.2,40.3-314.5-63.3-427.6c-99.7-107.4-289.6-145.7-431.5-88.2c-47.9,21.1-303,262.7-784.3,744.1l-715.3,711.5l-3.8-2280.1l-5.8-2282l-46-72.9c-25-40.3-80.5-95.9-122.7-124.6c-65.2-44.1-99.7-51.8-205.2-51.8s-140,7.7-205.2,51.8c-42.2,28.8-97.8,84.4-122.7,124.6l-46,72.9l-5.7,2282l-3.8,2280.1L3902,1159.4c-481.3-481.3-736.4-723-784.3-744.1c-136.1-55.6-308.7-24.9-416.1,72.9c-111.2,103.6-147.7,303-78.6,443c24.9,51.8,397,437.2,1106.5,1146.8c836.1,834.2,1085.4,1072,1137.2,1085.4C4958.6,3190.2,5033.4,3190.2,5125.5,3165.3z"/></g></g>
</svg>